<svg xmlns="http://www.w3.org/2000/svg" xmlns:cc="http://web.resource.org/cc/" xmlns:svg="http://www.w3.org/2000/svg" id="Layer_1" width="337" height="330" version="1.1" viewBox="0 0 337 330" xml:space="preserve" style="overflow:visible;enable-background:new 0 0 337 330"><metadata id="metadata1339"/><g id="g1307"><linearGradient id="XMLID_4_" x1="8" x2="269.59" y1="191.69" y2="191.69" gradientUnits="userSpaceOnUse"><stop style="stop-color:#6ba140" id="stop1310" offset="0"/><stop style="stop-color:#77ae40" id="stop1312" offset="1"/></linearGradient><path style="fill:url(#XMLID_4_);stroke:#fff;stroke-width:16" id="path1314" d="M8,113.71c0-30.19,22.04-52.33,52.11-52.33H217.48 c30.069,0,52.109,22.14,52.109,52.33v155.96c0,30.189-22.04,52.33-52.109,52.33H60.11C30.04,322,8,299.859,8,269.67V113.71z"/></g><g id="g1316"><linearGradient id="XMLID_5_" x1="293.923" x2="108.739" y1="218.343" y2="33.159" gradientUnits="userSpaceOnUse"><stop style="stop-color:#78b143" id="stop1319" offset="0"/><stop style="stop-color:#92c73c" id="stop1321" offset="1"/></linearGradient><path style="fill:url(#XMLID_5_);stroke:#fff;stroke-width:16" id="path1323" d="M96.59,63.43c0-24.13,17.65-41.82,41.73-41.82h126.02 c24.08,0,41.73,17.69,41.73,41.82v124.64c0,24.13-17.65,41.82-41.73,41.82H138.32c-24.08,0-41.73-17.69-41.73-41.82V63.43z"/></g><g id="g1325"><g id="g1327"><linearGradient id="XMLID_6_" x1="320.574" x2="194.646" y1="141.614" y2="15.686" gradientUnits="userSpaceOnUse"><stop style="stop-color:#94c63a" id="stop1330" offset="0"/><stop style="stop-color:#bcd531" id="stop1332" offset="1"/></linearGradient><path style="fill:url(#XMLID_6_);stroke:#fff;stroke-width:16" id="path1334" d="M186.221,36.37C186.221,20,198.25,8,214.66,8h85.9 C316.971,8,329,20,329,36.37v84.56c0,16.37-12.029,28.37-28.439,28.37h-85.9c-16.41,0-28.439-12-28.439-28.37V36.37z"/></g></g></svg>